# xmcd
#
# Track frame offsets: 
#        150
#        69481
#        108569
#        150010
#        186026
#
# Disc length: 2752 seconds
#
# Revision: 0
# Processed by: cddbd v1.5.2PL0 Copyright (c) Steve Scherf et al.
# Submitted via: ExactAudioCopy v0.99pb3
#
DISCID=330abe05
DTITLE=Anders Osborne - Tipitina's Live 2006 - Disc 2
DYEAR=2006
DGENRE=New Orleans
TTITLE0=Oh Mama
TTITLE1=Back On Dumaine
TTITLE2=Boxes, Bills and Pain
TTITLE3=Jam
TTITLE4=Feat Don't Fail Me Now
EXTD=
EXTT0=
EXTT1=
EXTT2=
EXTT3=
EXTT4=
PLAYORDER=
